<?xml version="1.0" encoding="utf-8"?>
<!-- Generator: Adobe Illustrator 24.1.3, SVG Export Plug-In . SVG Version: 6.00 Build 0)  -->
<svg version="1.1" id="Layer_1" xmlns="http://www.w3.org/2000/svg" xmlns:xlink="http://www.w3.org/1999/xlink" x="0px" y="0px"
	 viewBox="0 0 375 275" style="enable-background:new 0 0 375 275;" xml:space="preserve">
<style type="text/css">
	.st0{fill:#CB714F;}
	.st1{fill:#E8A582;}
	.st2{fill:#E8E8E3;}
	.st3{fill:#F2F1F0;}
	.st4{fill:#D1D0C9;}
	.st5{fill:#070606;}
	.st6{fill:#0A0809;}
	.st7{fill:#3C3335;}
	.st8{fill:#2E2729;}
	.st9{fill:#672806;}
	.st10{fill:#736A6B;}
	.st11{fill:#FFFFFF;}
	.st12{opacity:0.1996;}
	.st13{clip-path:url(#SVGID_2_);fill:#35887D;}
	.st14{fill:#F6F5F5;}
	.st15{clip-path:url(#SVGID_4_);fill:#35887D;}
	.st16{fill:#123C23;}
	.st17{fill:#AEAEA6;}
	.st18{fill:#F6F6F4;}
	.st19{fill:#BDC2B5;}
	.st20{fill:none;stroke:#B9CBB7;stroke-width:1.4277;stroke-linecap:round;stroke-linejoin:round;stroke-miterlimit:10;}
	.st21{fill:none;stroke:#B9CBB7;stroke-width:2.0383;stroke-linecap:round;stroke-linejoin:round;stroke-miterlimit:10;}
	.st22{fill:#559FC9;}
	.st23{opacity:0.14;fill:#2D704B;}
	.st24{fill:#41AC82;}
	.st25{fill:#2A7358;}
	.st26{fill:#46AC58;}
</style>
<g>
	<path class="st0" d="M287.37,104.94L287.37,104.94c1.67,0,3.02-1.35,3.02-3.02v-11.4c0-1.67-1.35-3.02-3.02-3.02
		c-1.67,0-3.02,1.35-3.02,3.02v11.4C284.35,103.59,285.7,104.94,287.37,104.94"/>
	<path class="st1" d="M275.4,84.67v7.34c0,3.48,2.39,6.41,5.61,7.25c0.6,0.16,1.23,0.24,1.88,0.24c4.12,0,7.49-3.37,7.49-7.49v-7.34
		c0-4.12-3.38-7.49-7.49-7.49C278.77,77.18,275.4,80.55,275.4,84.67"/>
	<rect x="283.46" y="100.77" class="st2" width="8.08" height="4.24"/>
	<path class="st3" d="M295.29,99.73c0.03-2.96,0.05-9.29-0.16-13.97c-0.13-2.88-0.77-4.4-1.25-5.15c-0.14-0.34-0.31-0.67-0.49-0.98
		h0.21c-1.46-3.18-4.88-5.41-8.88-5.41c-3.94,0-7.32,2.17-8.81,5.28c-0.01,0.01-0.03,0.02-0.04,0.03c-0.1,0.1-2.94,3.82-2.63,4.05
		c0.26,0.19,1.36-0.68,1.79-0.68c0.91,0,0.69,0.52,1.66,0.56c1.57,0.07,3.93-0.82,4.54-0.95c0.63-0.14,1.37-0.13,2.08-0.03
		c0.21,0.03,0.42,0.07,0.62,0.11c0.07,2.18,0.21,6.16,0.34,7.24c-0.19,0.57,1.4,4.65,1.75,5.44c1.23,2.8,2.45,1.51,3.86,3.51
		c0.05,0.29,0.07,0.54,0.07,0.75c-0.1,6.45,0.57,18.01,0.57,18.01c3.68,1.5,0.97-2.34,4.01-2.74
		C296.38,114.56,295.26,103.31,295.29,99.73"/>
	<path class="st4" d="M286.4,83.87c0.03,1.17-0.94,1.53-1.36,2.57c-0.48,1.21-0.67,2.27-0.75,3.71l-0.97-7.67
		C284.87,82.69,286.33,83.35,286.4,83.87"/>
	<path class="st5" d="M293.77,79.1h-18.14c-0.1,0-0.17-0.08-0.17-0.17v-1.34c0-0.1,0.08-0.17,0.17-0.17h18.14
		c0.1,0,0.17,0.08,0.17,0.17v1.34C293.95,79.02,293.87,79.1,293.77,79.1"/>
	<path class="st5" d="M293.6,80.42h-17.78c-0.44,0-0.8-0.36-0.8-0.8c0-0.44,0.36-0.8,0.8-0.8h17.78c0.44,0,0.8,0.36,0.8,0.8
		C294.39,80.06,294.04,80.42,293.6,80.42"/>
	<path class="st0" d="M275.45,92.59c0.03,0.36,0.08,0.71,0.16,1.05h2.16c0.29,0,0.53-0.23,0.53-0.52c0-0.29-0.24-0.52-0.53-0.52
		H275.45z"/>
	<path class="st5" d="M275.42,89.4v2.08h3.94c-0.41-1.28-1.62-2.21-3.04-2.21C276.01,89.26,275.71,89.31,275.42,89.4"/>
	<path class="st5" d="M276.21,95.36c0.62,1.21,1.55,2.24,2.69,2.97c0.29-0.46,0.45-1,0.45-1.58v-1.39H276.21z"/>
	<path class="st6" d="M85.44,237.9H73.07v-4.83l12.37,2.09c1.36,0.32,2.41,1.09,2.41,2.41c0,0.13-0.01,0.23-0.03,0.32H85.44z"/>
	<path class="st6" d="M75.12,237.9H62.75v-4.83l12.37,2.09c1.36,0.32,2.41,1.09,2.41,2.41c0,0.13-0.01,0.23-0.03,0.32H75.12z"/>
	<path class="st7" d="M90.27,125.51c0-6.97-5.7-12.67-12.67-12.67c-6.96,0-12.66,5.7-12.66,12.67v25.23v7.82v0.87h0.07
		c0.42,3,3,12.64,6.12,12.64H85.4v-12.64l4.54,4.39L90.27,125.51z"/>
	<rect x="87.58" y="125.94" class="st7" width="2.69" height="22.92"/>
	<path class="st8" d="M94.3,155.17l28.82-9.49c1.74-0.57,2.69-2.46,2.12-4.19c-0.57-1.74-2.46-2.69-4.19-2.12l-28.82,9.49
		c-1.74,0.57-2.69,2.46-2.12,4.19C90.68,154.78,92.56,155.74,94.3,155.17"/>
	<path class="st8" d="M83.69,122.94c-1.74,0.57-2.69,2.46-2.12,4.19l3.98,12.11l1.48,4.48l3.07,9.33c0.57,1.74,2.46,2.69,4.19,2.12
		c1.74-0.57,2.69-2.46,2.12-4.19l-3.07-9.33l-1.48-4.48l-3.98-12.11C87.32,123.32,85.43,122.37,83.69,122.94"/>
	<path class="st1" d="M121.05,139.37l-2.33,0.77l2.08,6.31l2.33-0.77c1.74-0.57,2.69-2.46,2.12-4.19
		C124.67,139.75,122.78,138.8,121.05,139.37"/>
	<path class="st0" d="M75.76,117.05L75.76,117.05c-1.73,0-3.13-1.4-3.13-3.12v-11.81c0-1.73,1.4-3.13,3.13-3.13
		c1.73,0,3.12,1.4,3.12,3.13v11.81C78.89,115.65,77.49,117.05,75.76,117.05"/>
	<path class="st1" d="M88.16,96.05v7.61c0,0.17,0,0.34-0.02,0.5c-0.05,0.79-0.22,1.54-0.49,2.25c-0.89,2.33-2.87,4.13-5.31,4.76
		c-0.62,0.17-1.28,0.26-1.94,0.26c-0.52,0-1.02-0.05-1.51-0.15c-3.49-0.7-6.15-3.76-6.25-7.42c-0.01-0.07-0.01-0.13-0.01-0.2v-7.61
		c0-4.27,3.5-7.76,7.76-7.76c1.26,0,2.45,0.3,3.51,0.85c0.17,0.08,0.33,0.17,0.49,0.27c1.08,0.65,1.99,1.56,2.64,2.64
		C87.75,93.22,88.16,94.59,88.16,96.05"/>
	<rect x="71.44" y="112.72" class="st2" width="8.37" height="4.4"/>
	<path class="st0" d="M88.11,104.25c-0.03,0.37-0.08,0.73-0.16,1.08h-2.23c-0.3,0-0.55-0.24-0.55-0.54c0-0.3,0.24-0.54,0.55-0.54
		H88.11z"/>
	<path class="st9" d="M84.85,87.59c0.48,0.36,1.38,1.15,1.88,2.47c0.24,0.64,0.5,1.31,0.29,2.03c-0.33,1.16-1.55,1.36-3.03,2.53
		c-0.7,0.55-1.62,1.44-2.44,2.91c0.05-1.22,0.23-2.77,0.73-4.5C82.99,90.64,84.02,88.81,84.85,87.59"/>
	<path class="st10" d="M85.55,87.27c-1.31,2.21-3.1,5.84-3.91,10.65c-0.97,5.82-0.03,10.59,0.7,13.24c0.2,0.71,0.38,1.49,0.51,2.35
		c0.33,2.21,0.22,4.14,0,5.64c-2.21,2.92-5.86,4.29-9.29,3.51c-4.51-1.03-6.23-5.25-6.37-5.62c-0.22-6.36-0.15-11.77,0-15.93
		c0.28-8,0.79-10.07,2.41-11.91c2.62-2.97,7.07-4.12,10.79-3.68C82.72,85.8,84.5,86.65,85.55,87.27"/>
	<path class="st11" d="M88.14,104.16c-0.05,0.79-0.22,1.54-0.49,2.25c-0.01,0.01-0.01,0.02-0.02,0.03
		c-1.35-0.11-2.47-1.03-2.86-2.28H88.14z"/>
	<g class="st12">
		<g>
			<defs>
				<rect id="SVGID_1_" x="104.58" y="225.11" width="225.47" height="34.99"/>
			</defs>
			<clipPath id="SVGID_2_">
				<use xlink:href="#SVGID_1_"  style="overflow:visible;"/>
			</clipPath>
			<path class="st13" d="M177.8,259.8c8.12,0.71,28.86,0.26,70.31-2.48c15.8-1.05,36.03-2.64,62.02-10.16
				c13.01-3.76,19.94-5.51,19.93-8.05c-0.04-7.21-56.01-13.27-102.76-13.93c-51.28-0.72-122.55,4.63-122.71,14.76
				C104.45,247.84,147.6,257.14,177.8,259.8"/>
		</g>
	</g>
	<path class="st5" d="M283.7,227.05v4.41c0,0.72-0.59,1.31-1.31,1.31h-13.59c-1.38,0-1.82-1.86-0.58-2.48l13.59-4.41
		C282.67,225.45,283.7,226.08,283.7,227.05"/>
	<path class="st5" d="M295.42,233.61c-0.05-2.8-2.33-5.05-5.14-5.05c-2.81,0-5.09,2.25-5.14,5.05H295.42z"/>
	<path class="st2" d="M283.05,108.28L283.05,108.28c-1.72-0.85-3.8-0.14-4.65,1.59l-11.35,22.2l6.24,3.06l11.35-22.2
		C285.48,111.2,284.77,109.12,283.05,108.28"/>
	<path class="st2" d="M274.6,133.18L274.6,133.18c0.45-1.87-0.7-3.74-2.56-4.19l-17.97-3.59l-1.63,6.76l17.96,3.59
		C272.27,136.19,274.15,135.04,274.6,133.18"/>
	<path class="st1" d="M256.38,125.6c2,1.67,2.26,4.64,0.6,6.63c-1.67,2-4.63,2.27-6.63,0.6c-2-1.67-2.26-4.63-0.6-6.63
		C251.41,124.2,254.38,123.93,256.38,125.6"/>
	<path class="st14" d="M274.43,228.44V115.15c0-6.75,5.47-12.22,12.22-12.22h5.5c4.11,0,7.47,3.36,7.47,7.47v118.03H274.43z"/>
	<path class="st2" d="M295.13,106.09L295.13,106.09c-1.83,0.59-2.82,2.55-2.23,4.38l7.32,23.83l6.61-2.15l-7.32-23.83
		C298.91,106.5,296.95,105.5,295.13,106.09"/>
	<path class="st2" d="M306.41,129.84L306.41,129.84c-0.98-1.65-3.11-2.2-4.76-1.22l-15.39,9.94l3.54,5.98l15.39-9.94
		C306.84,133.63,307.38,131.49,306.41,129.84"/>
	<path class="st1" d="M288.06,137.1c2.59-0.2,4.85,1.75,5.05,4.34c0.2,2.59-1.75,4.86-4.34,5.05c-2.59,0.2-4.85-1.75-5.05-4.34
		C283.52,139.56,285.46,137.3,288.06,137.1"/>
	<g class="st12">
		<g>
			<defs>
				<rect id="SVGID_3_" x="45.17" y="230.41" width="54.46" height="15.12"/>
			</defs>
			<clipPath id="SVGID_4_">
				<use xlink:href="#SVGID_3_"  style="overflow:visible;"/>
			</clipPath>
			<path class="st15" d="M75.81,245.45c-14.89,0.73-30.68-3.93-30.64-7.82c0.04-3.73,14.63-6.09,16.32-6.36
				c18.69-3.02,38.18,2.6,38.14,7.02C99.6,242.06,85.36,244.99,75.81,245.45"/>
		</g>
	</g>
	<rect x="252.18" y="185.07" class="st16" width="3.58" height="63.29"/>
	<rect x="129.72" y="185.07" class="st16" width="3.58" height="63.29"/>
	<path class="st17" d="M255.51,186.44H125.03c-3.5,0-6.34-2.84-6.34-6.34c0-3.5,2.84-6.34,6.34-6.34h130.49
		c3.5,0,6.34,2.84,6.34,6.34C261.85,183.6,259.02,186.44,255.51,186.44"/>
	<polygon class="st18" points="170.26,180.36 173.14,174.88 187.93,174.6 189.93,179.62 	"/>
	<polygon class="st18" points="212.17,182.9 216.08,174.67 236.94,174.66 239.9,182.35 	"/>
	<g>
		<path class="st19" d="M245.4,127.1h-73.56c-4.57,0-8.27-3.7-8.27-8.27V70.57c0-4.57,3.7-8.27,8.27-8.27h73.56
			c4.57,0,8.27,3.7,8.27,8.27v48.26C253.67,123.4,249.97,127.1,245.4,127.1z"/>
		<path class="st11" d="M243.34,125.68h-69.43c-4.57,0-8.27-3.7-8.27-8.27V71.99c0-4.57,3.7-8.27,8.27-8.27h69.43
			c4.57,0,8.27,3.7,8.27,8.27v45.42C251.61,121.98,247.91,125.68,243.34,125.68z"/>
		<g>
			<line class="st20" x1="203.08" y1="109.5" x2="220.11" y2="109.5"/>
			<line class="st20" x1="203.08" y1="111.97" x2="220.11" y2="111.97"/>
			<line class="st20" x1="203.08" y1="114.44" x2="220.11" y2="114.44"/>
			<line class="st20" x1="203.08" y1="116.92" x2="220.11" y2="116.92"/>
			<line class="st20" x1="203.08" y1="119.39" x2="209.69" y2="119.39"/>
		</g>
		<g>
			<line class="st21" x1="188.85" y1="75.65" x2="213.16" y2="75.65"/>
			<line class="st21" x1="188.85" y1="79.18" x2="213.16" y2="79.18"/>
			<line class="st21" x1="188.85" y1="82.71" x2="213.16" y2="82.71"/>
			<line class="st21" x1="188.85" y1="86.23" x2="213.16" y2="86.23"/>
			<line class="st21" x1="188.85" y1="89.76" x2="198.28" y2="89.76"/>
		</g>
		<g>
			<path class="st22" d="M226.76,77.9"/>
		</g>
		<g>
			<path class="st23" d="M238.57,81.44h4.88c0.1-0.46,0.16-0.94,0.16-1.43V69.1h-12.76v17.6h6.07c0.57,0,1.12-0.08,1.65-0.21V81.44z
				"/>
			<path class="st17" d="M238.57,86.48c2.44-0.62,4.34-2.57,4.88-5.04h-4.88V86.48z"/>
		</g>
		<g>
			<path class="st23" d="M238.57,108.55h4.88c0.1-0.46,0.16-0.94,0.16-1.43V96.21h-12.76v17.6h6.07c0.57,0,1.12-0.08,1.65-0.21
				V108.55z"/>
			<path class="st17" d="M238.57,113.6c2.44-0.62,4.34-2.57,4.88-5.04h-4.88V113.6z"/>
		</g>
		<polygon class="st18" points="118.28,153.57 124.97,133.03 137.93,131.33 131.19,152.52 		"/>
	</g>
	<g>
		<path class="st24" d="M312,64.89h-34.71l-9.32,6.05v-25.7c0-5.16,4.8-9.35,10.73-9.35H312c5.92,0,10.73,4.19,10.73,9.35v10.3
			C322.72,60.71,317.92,64.89,312,64.89z"/>
		<path class="st25" d="M310.55,46.16h-31.18c-0.8,0-1.45-0.65-1.45-1.45V44.4c0-0.8,0.65-1.45,1.45-1.45h31.18
			c0.8,0,1.45,0.65,1.45,1.45v0.31C312,45.51,311.35,46.16,310.55,46.16z"/>
		<path class="st25" d="M310.55,51.95h-31.18c-0.8,0-1.45-0.65-1.45-1.45v-0.31c0-0.8,0.65-1.45,1.45-1.45h31.18
			c0.8,0,1.45,0.65,1.45,1.45v0.31C312,51.3,311.35,51.95,310.55,51.95z"/>
		<path class="st25" d="M296.98,57.73h-17.6c-0.8,0-1.45-0.65-1.45-1.45v-0.31c0-0.8,0.65-1.45,1.45-1.45h17.6
			c0.8,0,1.45,0.65,1.45,1.45v0.31C298.43,57.08,297.78,57.73,296.98,57.73z"/>
	</g>
	<g>
		<path class="st24" d="M152.56,40.45h14.99l8.18,5.31V23.21c0-4.53-4.21-8.21-9.41-8.21h-13.75c-5.2,0-9.41,3.67-9.41,8.21v9.04
			C143.15,36.78,147.36,40.45,152.56,40.45z"/>
		<path class="st11" d="M159.39,35.5c-1.21,0-2.04-0.9-2.04-2.11c0-1.25,0.86-2.11,2.09-2.11c1.23,0,2.04,0.86,2.06,2.11
			c0,1.21-0.81,2.11-2.06,2.11H159.39z M158.12,30.12l-0.51-10.51h3.66l-0.51,10.51H158.12z"/>
	</g>
	<g>
		<path class="st26" d="M130.76,86.08h-19.24l-10.49,6.82V63.95c0-5.82,5.41-10.53,12.08-10.53h17.65c6.67,0,12.08,4.72,12.08,10.53
			v11.6C142.84,81.36,137.43,86.08,130.76,86.08z"/>
		<polygon class="st11" points="121.93,58.94 125.16,65.5 132.4,66.55 127.16,71.65 128.4,78.85 121.93,75.45 115.46,78.85 
			116.7,71.65 111.46,66.55 118.7,65.5 		"/>
	</g>
	<polygon class="st7" points="64.94,156.95 62.53,234.15 90.27,232.77 90.1,159.27 	"/>
	<path class="st8" d="M93.71,171.59l-1.93-16.76c-1.18-0.56-1.95-2.62-1.95-2.62l0.16,14.23h0.05v8.82c0.24,0.03,0.49,0.03,0.74,0
		C92.6,175.06,93.92,173.4,93.71,171.59z"/>
	<path class="st1" d="M93.71,171.54l-0.29-2.53l-3.26,0.37v5.97c0.17,0.01,0.34,0,0.52-0.01C92.56,175.12,93.92,173.42,93.71,171.54
		z"/>
</g>
</svg>
