<?xml version="1.0" encoding="utf-8"?>
<!-- Generator: Adobe Illustrator 24.1.3, SVG Export Plug-In . SVG Version: 6.00 Build 0)  -->
<svg version="1.1" id="Layer_1" xmlns:svgjs="http://svgjs.com/svgjs"
	 xmlns="http://www.w3.org/2000/svg" xmlns:xlink="http://www.w3.org/1999/xlink" x="0px" y="0px" viewBox="0 0 512 512"
	 style="enable-background:new 0 0 512 512;" xml:space="preserve">
<style type="text/css">
	.st0{fill:#00937F;stroke:#00937F;stroke-width:5;stroke-miterlimit:10;}
</style>
<g>
	<path class="st0" d="M335.8,124.2c-23.7-16-51.4-24.5-80.1-24.7c-28.7-0.1-56.5,8.1-80.3,23.8c-22.3,14.7-39.2,34.5-50,58.7
		c-18.5,41.6-15.9,90.5,6.9,130.9c8.8,15.5,19.8,31.4,32.9,47.4l22.8,35v47.2c0,0,0,0.1,0,0.1c0,0,0,0.1,0,0.1
		c0,32.9,26.8,59.7,59.7,59.7h14.3c32.9,0,59.7-26.8,59.7-59.7c0,0,0-0.1,0-0.1c0,0,0-0.1,0-0.1v-47.2l22.8-35
		c13-15.9,24.1-31.8,32.8-47.2c22.9-40.5,25.6-89.4,7-131C373.9,158.3,357.5,138.8,335.8,124.2z M262.1,483.1h-14.3
		c-19,0-34.9-13.2-39.2-30.8h6.7c12.5,0,12.5-19.4,0-19.4h-7.8v-30.6h94.9v30.6h-6.9c-12.5,0-12.5,19.4,0,19.4h5.8
		C297,469.9,281,483.1,262.1,483.1z M299.7,294.7c-2.9-4.5-8.9-5.9-13.4-3c-5.2,3.3-9.9,7-14.3,11.2c0.1-5.5,2.7-11.4,7.1-16.1
		c5.1-5.6,14.2-9.3,20.6-11.5c10.2-3.6,20.8-5.9,31.2-6.7c-1.5,2.8-2.9,5.6-4.1,8.5c-2.6,6.2-3.9,12.4-5.2,18.4
		c-1.9,8.7-3.5,16.3-8.6,22c-4.7,5.2-12,8.2-19,7.8c-4.4-0.3-8.7-1.8-12.3-4.4c4.3-4.8,9.4-9.2,15-12.8
		C301.2,305.3,302.6,299.3,299.7,294.7z M360.5,303.5c-8.3,14.6-18.8,29.7-31.3,44.9c-8.5,10.4-15.1,23.1-22.5,34.4h-42.4
		c0-6.3-0.2-12.6,0-18.9c0.3-9.4,2.5-18.4,6.5-26.7c6.4,4.4,14,7.1,21.9,7.6c12.9,0.8,26-4.6,34.6-14.2c8.6-9.6,11.1-20.9,13.2-30.9
		c1.1-5.3,2.2-10.4,4.1-14.9c3.1-7.3,24.4-34.4,3.2-35.6c-18.5-1.1-37.2,1.7-54.7,7.9c-9.1,3.2-20.5,8-28.5,16.7
		c-7.8,8.5-12.2,19.4-12.2,29.9c0,6.2,1.6,12.5,4.6,18.1c-1.9,3.2-3.7,6.6-5.1,10.1c-7.3-10.5-8.6-29.4-8.3-39.3
		c0.1-0.1,0.1-0.2,0.2-0.2c4.8-6.8,7.5-15,7.6-23c0-10.5-4.4-21.3-12.2-29.8c-8-8.7-19.4-13.5-28.4-16.7c-17.4-6.2-36.1-9-54.6-7.9
		c-8.4,0.5-13,10.7-7.6,17.3c4.3,5.3,8.1,12,10.8,18.3c1.9,4.5,3,9.5,4.1,14.8c2.1,10,4.6,21.3,13.2,30.9c8.1,9,20,14.2,32.1,14.2
		c5.5,0,10.9-1.1,16-3.2c0.3,2.9,0.6,5.9,1.2,9c3.6,20.5,11.9,31.1,20,36.6c-0.5,3.5-0.9,7-1,10.5c-0.2,6.5,0,13,0,19.5h-41.9
		c-7.3-11.3-13.9-24-22.5-34.4c-12.5-15.3-23.1-30.5-31.4-45.1c-19.8-35-22.1-77.4-6.1-113.4c9.3-20.8,23.7-37.8,42.9-50.4
		c20.4-13.5,44.2-20.6,68.8-20.6c24.8,0,49.4,7.5,70,21.3c18.6,12.6,32.7,29.3,41.8,49.7C382.7,225.9,380.4,268.4,360.5,303.5z
		 M208.4,273.3c4.7,4.3,9,9,12.8,14c-3.4,2.1-7.3,3.4-11.1,3.6c-7,0.4-14.3-2.6-19-7.8c-5.1-5.7-6.7-13.2-8.6-21.9
		c-1.3-6-2.6-12.2-5.2-18.3c-1.2-2.9-2.6-5.7-4.1-8.5c10.4,0.8,21,3.1,31.1,6.7c6.4,2.2,15.4,5.9,20.6,11.5c4.5,4.9,7.1,11,7,16.6
		c0,0.2,0,0.3,0,0.5c-3.3-3.8-6.8-7.4-10.5-10.8C212.4,250.6,199,264.8,208.4,273.3C213.1,277.5,206.3,271.3,208.4,273.3z"/>
	<path class="st0" d="M260.9,69.5c5.4,0,9.7-4.4,9.7-9.7V18.9c0-12.5-19.4-12.5-19.4,0v40.9C251.2,65.1,255.5,69.5,260.9,69.5z"/>
	<path class="st0" d="M62.9,233.4H22c-12.5,0-12.5,19.4,0,19.4h40.9C75.4,252.9,75.4,233.4,62.9,233.4z"/>
	<path class="st0" d="M490,233.4h-40.9c-12.5,0-12.5,19.4,0,19.4H490C502.5,252.9,502.5,233.4,490,233.4z"/>
	<path class="st0" d="M445.7,67.1c-3.6-4-9.8-4.3-13.7-0.7l-30.3,27.5c-9.1,8.3,3.8,22.8,13.1,14.4L445,80.9
		C449,77.3,449.3,71.1,445.7,67.1C442.1,63.2,449.3,71.1,445.7,67.1z"/>
	<path class="st0" d="M114,93.9L83.7,66.5c-9.2-8.4-22.3,6-13.1,14.4l30.3,27.5C110,116.6,123.2,102.3,114,93.9z"/>
	<path class="st0" d="M255.6,432.8c-5.3,0-9.7,4.4-9.7,9.7c0,5.3,4.4,9.7,9.7,9.7c5.1,0,9.5-4.2,9.7-9.3
		C265.5,437.5,261,432.8,255.6,432.8z"/>
</g>
</svg>
