<svg xmlns="http://www.w3.org/2000/svg" width="650" height="892" viewBox="0 0 650 892">
  <g fill="none" fill-rule="evenodd" transform="translate(-80)">
    <path fill="#1ABC9C" d="M93.5443167,125.570149 C186.107535,3.09227242 355.431224,0.0746114021 378.698933,0 C397.763295,-0.0589949636 601.416616,2.40811569 690.86063,153.834806 C734.584629,227.859644 731.079542,303.731934 728.837757,352.233349 C727.032385,391.336246 720.323108,503.305291 640.546793,601.229543 C551.681601,710.31223 388.373523,782.058848 233.593874,735.639851 C142.994515,708.471687 35.2464172,634.799294 6.5993426,525.212128 C-7.93780746,469.595023 3.03223973,419.796706 24.974631,320.195464 C46.512766,222.432461 57.280685,173.553263 93.5443167,125.570149"/>
    <path fill="#0EAA9B" d="M456.12296 756.705695C490.27559 799.058173 551.708797 806.436615 593.338308 773.185337 634.96782 739.93406 641.029669 678.644705 606.87704 636.292227 572.72441 593.941995 511.291203 586.563554 469.661692 619.814831 428.03218 653.063862 421.970331 714.353217 456.12296 756.705695M365.118206 873.257221C382.282091 894.542056 413.156216 898.250196 434.077714 881.539298 454.999212 864.828399 458.04568 834.02657 440.881794 812.741735 423.717909 791.458028 392.843784 787.749888 371.922286 804.460787 351.000788 821.170556 347.95432 851.972386 365.118206 873.257221"/>
  </g>
</svg>
