<?xml version="1.0" encoding="utf-8"?>
<!-- Generator: Adobe Illustrator 24.1.3, SVG Export Plug-In . SVG Version: 6.00 Build 0)  -->
<svg version="1.1" id="Layer_1" xmlns:svgjs="http://svgjs.com/svgjs"
	 xmlns="http://www.w3.org/2000/svg" xmlns:xlink="http://www.w3.org/1999/xlink" x="0px" y="0px" viewBox="0 0 512 512"
	 style="enable-background:new 0 0 512 512;" xml:space="preserve">
<style type="text/css">
	.st0{fill:#00937F;stroke:#00937F;stroke-width:5;stroke-miterlimit:10;}
</style>
<g>
	<g id="outline">
		<path class="st0" d="M24,160h112.2c-0.1,2.7-0.2,5.3-0.2,8c0,4.4,3.6,8,8,8c0,0,0,0,0,0h136c4.4,0,8-3.6,8-8
			c0-0.9-0.1-1.7-0.4-2.5l-32.9-98.6c10.5-8.1,12.3-23.2,4.2-33.7c-4.5-5.8-11.5-9.3-18.9-9.3h-80.9C127,24,97,40,79.2,66.7L75.7,72
			H24c-4.4,0-8,3.6-8,8c0,0,0,0,0,0v72C16,156.4,19.6,160,24,160C24,160,24,160,24,160z M152.2,160c1.2-19.7,7-38.9,16.9-56l22.9,0
			h0c13.2,0,24-10.7,24-24c0-2.7-0.5-5.4-1.4-8l24.9,0l29.3,88H152.2z M92.5,75.6C107.3,53.3,132.3,40,159.1,40H240c4.4,0,8,3.6,8,8
			s-3.6,8-8,8l-56,0v0h-32v16h40c4.4,0,8,3.6,8,8s-3.6,8-8,8h0l-32,0h0c-2.7,0-5.2,1.3-6.7,3.6c-8.5,12.8-22.8,20.5-38.2,20.4H104
			v16h11.1c10,0,19.9-2.4,28.8-7.1c-2.6,7.5-4.6,15.2-5.9,23.1H88V82.4L92.5,75.6z M32,88h40v56H32V88z"/>
		<path class="st0" d="M472,184c-2.7,0-5.4,0.5-8,1.4c0-0.5,0-0.9,0-1.4c0-79.4-64.6-144-144-144c-15.5,0-30.9,2.5-45.5,7.3
			c-4.2,1.4-6.5,5.9-5.1,10.1c0,0,0,0,0,0l41.7,125.2L234.4,290c-2.6,3.6-1.7,8.6,1.9,11.2c24.4,17.5,53.7,26.9,83.7,26.8
			c10.8,0,21.5-1.2,32-3.6V488c0,4.4,3.6,8,8,8c0,0,0,0,0,0h80c4.4,0,8-3.6,8-8c0,0,0,0,0,0V372.3l5.3-3.5
			C480,351,496,321,496,288.9V208C496,194.8,485.2,184,472,184z M252.2,292.6l74.3-104c1.5-2.1,1.9-4.8,1.1-7.2L287.2,60.2
			c68.4-18.1,138.5,22.8,156.6,91.2c2.8,10.6,4.2,21.6,4.2,32.6c0,16.5-3.1,32.8-9.3,48c-12.7,0.7-22.7,11.2-22.7,24l0,12.6
			C374.6,315.6,305.4,325.7,252.2,292.6z M432,480h-64V376h64V480z M480,288.9c0,26.8-13.3,51.7-35.6,66.6l-6.8,4.5H368v-40.2
			c10.9-3.8,21.2-9,30.9-15.3c-4.5,8.8-6.9,18.5-6.9,28.3V344h16v-11.1c0-15.4,7.7-29.7,20.4-38.2c2.2-1.5,3.6-4,3.6-6.7l0-32
			c0-4.4,3.6-8,8-8s8,3.6,8,8v40h16v-32h0l0-56c0-4.4,3.6-8,8-8s8,3.6,8,8c0,0,0,0,0,0V288.9z"/>
		<path class="st0" d="M24,496h72c3.1,0,6-1.8,7.3-4.6l47.4-102.7l63-63c1.5-1.5,2.3-3.5,2.3-5.7v-39l54.5-76.3
			c2.6-3.6,1.7-8.6-1.9-11.2c-1.4-1-3-1.5-4.6-1.5H128c-4.4,0-8,3.6-8,8c0,0,0,0,0,0c0,12.9,1.7,25.7,5.2,38.1L110,249.5l-4-27.9
			c-2-13.7-14.7-23.3-28.4-21.3C65.2,202,56,212.6,56,225.1v116.3l-38.5,53.9c-1,1.4-1.5,3-1.5,4.6v88C16,492.4,19.6,496,24,496
			C24,496,24,496,24,496z M248.5,208l-65.2,91.3c-27.7-22.6-44.7-55.7-47-91.3H248.5z M81.1,216c4.5,0,8.4,3.4,9,7.8l5.9,41.3
			c0.3,2.1,1.4,4,3.1,5.3c18.1,13.6,28.7,35,28.8,57.6h16c-0.1-24-9.9-47-27.2-63.6l13.8-10.3c10.3,25.3,27.5,47.2,49.7,63.1
			c3.6,2.6,8.6,1.7,11.2-1.8c0,0,0,0,0,0l8.6-12v13.3l-57.6,57.6L72,339.1V225.1C72,220.1,76.1,216,81.1,216z M32,402.6l34.5-48.4
			l67,33.5L90.9,480H32V402.6z"/>
	</g>
</g>
</svg>
