<?xml version="1.0" encoding="utf-8"?>
<!-- Generator: Adobe Illustrator 24.1.3, SVG Export Plug-In . SVG Version: 6.00 Build 0)  -->
<svg version="1.1" id="Layer_1" xmlns:svgjs="http://svgjs.com/svgjs"
	 xmlns="http://www.w3.org/2000/svg" xmlns:xlink="http://www.w3.org/1999/xlink" x="0px" y="0px" viewBox="0 0 512 512"
	 style="enable-background:new 0 0 512 512;" xml:space="preserve">
<style type="text/css">
	.st0{fill:#00937F;}
	.st1{fill:#FFFFFF;}
</style>
<g>
	<g>
		<path class="st0" d="M505.7,381.6c-13-25-42.6-35.6-70.2-25.1c-19.3,7.3-42.8,16.3-68.5,23.3c2.4-11.4,1.2-23.4-3.5-34.9
			c-6.9-16.7-21.1-29.2-38.9-34.1c-9.1-2.5-19-3.1-29.4-1.7c-68.5,9.3-109.3-13.9-145.3-34.3c-24.2-13.7-47-26.7-73.8-26.7
			c-32.6,0-62,10.9-62,10.9C3.6,262.2-2.3,273.4,1,284c3.3,10.5,14.5,16.4,25.1,13.1c0,0,23.5-9.1,50-9.1c16.2,0,32.9,9.5,54.1,21.5
			c31.7,18,73.3,41.6,135.1,41.6c11.1,0,22.9-0.8,35.4-2.5c4.9-0.7,9.5-0.5,13.2,0.6c4.2,1.2,9.8,4,12.7,10.8
			c2.2,5.3,2.3,10.3,0.3,14.7c-2.4,5.5-7.9,10.1-15.5,12.8c-10.9,4-26.5,6.1-44.2,6.3c-19,0.1-37.6-2.1-53.9-6.3
			c-10.7-2.8-21.6,3.6-24.4,14.3c-2.8,10.7,3.6,21.6,14.3,24.4c19.1,5,42.2,7.7,64.1,7.7v0c76-0.3,141.1-24.4,182.6-40.2
			c7-2.6,16.2-2.2,20.7,6.6c3.8,7.2,1,16.2-6.2,20c-50.2,26.8-108.4,51.6-194,51.6c-76.2,0-146.4-29.4-191.8-54.1
			c-32.2-17.5-56.4-13.8-62.3-12.5c0,0-16,2.4-16,19.6c0,11,9,20,20,20c1.8,0,5.2-0.7,5.2-0.7s13.3-2.5,34,8.8
			C108.8,480,185.6,512,270.2,512c107.4,0,178.6-38.1,212.9-56.4C509.5,441.5,519.5,408.1,505.7,381.6L505.7,381.6z"/>
		<path class="st0" d="M218.1,192.9c12.4,13.3,28.7,22.8,47.1,26.9l40,0c18-4,34-13.3,46.3-26.1l20.8-34.2
			c3.2-9.3,4.9-19.2,4.9-29.6c0-10.3-1.7-20.2-4.9-29.5l-20.8-34.2c-12.3-12.8-28.4-22.1-46.3-26.1h-40c-18.4,4.1-34.7,13.7-47.1,27
			l-20.4,34.4c-2.9,9-4.5,18.5-4.5,28.4c0,9.9,1.6,19.5,4.5,28.5L218.1,192.9z M285.2,78c28.7,0,52,23.3,52,52s-23.3,52-52,52
			s-52-23.3-52-52S256.5,78,285.2,78z"/>
	</g>
	<circle class="st0" cx="285.2" cy="130" r="95.3"/>
	<circle class="st1" cx="285.2" cy="130" r="60.3"/>
</g>
</svg>
