<svg id="Layer_1" data-name="Layer 1" xmlns="http://www.w3.org/2000/svg" viewBox="0 0 213.4 149">
  <defs>
    <style>
      .cls-1 {
        fill: #746b67;
      }

      .cls-2, .cls-5 {
        fill: #004d73;
      }

      .cls-3, .cls-6 {
        fill: #00a268;
      }

      .cls-4 {
        fill: #7a8889;
      }

      .cls-4, .cls-5, .cls-6, .cls-7 {
        fill-rule: evenodd;
      }

      .cls-7 {
        fill: #be9e72;
      }
    </style>
  </defs>
  <g>
    <g>
      <path class="cls-1" d="M86.2,153.4c-.5,0-.7-.3-1-.6a2.5,2.5,0,0,1-.4-1.3,1.6,1.6,0,0,1,.4-1.1,1.2,1.2,0,0,1,.9-.4H88V149l-1.9-.2-1,.2-.9.5a2.6,2.6,0,0,0-.5.9,2,2,0,0,0-.2,1.1v.5l.2.5c.1.1.1.3.2.4l.4.4H78.6l-.3-.2-.3-.3c0-.2-.1-.3-.1-.5v-6.1l-1.3.5v5.8c0,.2-.1.3-.1.4l-.2.3-.3.2H74.7v-4.6l-1.4.5v4.1H72v1.2h4.6l.5-.3c.2,0,.3-.2.5-.3s.3.3.6.5l.9.2h9.6v-1.2Z" transform="translate(-11.5 -8.6)"/>
      <path class="cls-1" d="M96.3,152.3v-6.1l-1.4.5v6.2l-.2.3-.3.2H93v-4.6l-1.3.5v4.1H90.4v1.2h4.5l.6-.3c.4-.2.8-.7.8-1.9" transform="translate(-11.5 -8.6)"/>
      <polygon class="cls-1" points="87.8 137.6 86.5 138.2 86.5 146 87.8 146 87.8 137.6"/>
      <path class="cls-1" d="M107.5,149.6a2.1,2.1,0,0,0-1-.6l-1.1-.2-1.2.2a2.8,2.8,0,0,0-1.5,1.5,2.2,2.2,0,0,0-.2,1.2,2.7,2.7,0,0,0,.2,1.3,2.4,2.4,0,0,0,.6.9,1.9,1.9,0,0,0,.9.5l1.2.2,1.1-.2a3.1,3.1,0,0,0,1-.5l.6-.9a5.1,5.1,0,0,0,.2-1.3,3.7,3.7,0,0,0-.2-1.2,3.5,3.5,0,0,0-.6-.9m-1,3.3a1.3,1.3,0,0,1-1.1.5,1.7,1.7,0,0,1-1.2-.5,2,2,0,0,1,0-2.4,1.7,1.7,0,0,1,1.2-.5,1.3,1.3,0,0,1,1.1.5,2,2,0,0,1,0,2.4" transform="translate(-11.5 -8.6)"/>
      <path class="cls-1" d="M110.8,156.9a3.7,3.7,0,0,0,.5-2v-6.1l-1.4.5v6.4c-.1.2-.1.4-.2.5l-.2.2h-1.3v1.1h1a1.7,1.7,0,0,0,1.6-.7" transform="translate(-11.5 -8.6)"/>
      <polygon class="cls-1" points="102.8 137.6 101.4 138.2 101.4 145.9 102.8 145.9 102.8 137.6"/>
      <path class="cls-1" d="M116.9,156.9a3.7,3.7,0,0,0,.4-2v-6.1l-1.3.5v5.6a1.9,1.9,0,0,1-.1.8,4.3,4.3,0,0,1-.1.5l-.3.2h-1.2v1.1h1a1.9,1.9,0,0,0,1.6-.7" transform="translate(-11.5 -8.6)"/>
      <polygon class="cls-1" points="105.8 137.6 105.8 139.2 104.5 138.7 104.5 137.6 105.8 137.6"/>
      <polygon class="cls-1" points="95.8 137.6 95.8 139.2 94.5 138.7 94.5 137.6 95.8 137.6"/>
      <polygon class="cls-1" points="93.3 137.6 93.3 139.2 91.9 138.7 91.9 137.6 93.3 137.6"/>
      <path class="cls-1" d="M92.4,157.1h-.3c-.1-.1-.1-.2-.1-.4a.4.4,0,0,1,.1-.3h1v-.4h-.7a.8.8,0,0,0-.7.3.6.6,0,0,0-.3.6v.5h-.4v.5h2.1v-.5Z" transform="translate(-11.5 -8.6)"/>
      <path class="cls-1" d="M124.4,150.8a3.7,3.7,0,0,0-.5-1.1,1.5,1.5,0,0,0-.9-.6,3,3,0,0,0-2.6,0c-.4.1-.6.4-.9.6a3,3,0,0,0-.4,1,4.5,4.5,0,0,0-.1,1.2,3.6,3.6,0,0,0,.2,1.1,2.4,2.4,0,0,0,.6.9,1.9,1.9,0,0,0,.9.5l1.1.2h.4l.9-.6c-.1,1.3-.4,2.5-2.3,2.5h-1.1v1.1H121a3.8,3.8,0,0,0,1.6-.3,2.4,2.4,0,0,0,1.1-.9,4.3,4.3,0,0,0,.6-1.7,15.2,15.2,0,0,0,.2-2.3c0-.6-.1-1.2-.1-1.6m-1.3,2.6h-1.3a1.4,1.4,0,0,1-1.1-.4,1.6,1.6,0,0,1-.3-1.1v-.8l.3-.6.4-.4h.7a1,1,0,0,1,1,.6,3.7,3.7,0,0,1,.3,1.7v1.1" transform="translate(-11.5 -8.6)"/>
      <path class="cls-1" d="M70.6,150.4a2.4,2.4,0,0,0-.6-.9,1.9,1.9,0,0,0-.9-.5l-1.2-.2-1.1.2a1.9,1.9,0,0,0-.9.5l-.7.9a5,5,0,0,0-.2,1.2,2.7,2.7,0,0,0,.3,1.2c.1.2.8.5,1,.6h-.8l-.6.2-.6.5a2.5,2.5,0,0,0-.5,1.5v1.9h1.4v-2.3a.8.8,0,0,1,.2-.4.5.5,0,0,1,.4-.2h2.1l1.2-.2a3.1,3.1,0,0,0,1-.5,1.9,1.9,0,0,0,.5-.9,2.9,2.9,0,0,0,.3-1.4,2.4,2.4,0,0,0-.3-1.2M69.1,153a1.6,1.6,0,0,1-1.2.4,1.4,1.4,0,0,1-1.1-.4,2.1,2.1,0,0,1-.4-1.4,1.6,1.6,0,0,1,.4-1.2,1.4,1.4,0,0,1,1.1-.4,1.5,1.5,0,0,1,1.2.4,1.6,1.6,0,0,1,.4,1.2,2.9,2.9,0,0,1-.4,1.4" transform="translate(-11.5 -8.6)"/>
    </g>
    <path class="cls-2" d="M25.1,131a2.2,2.2,0,0,0,1.9-.7,3.1,3.1,0,0,0,.5-1.9v-6l-2.9.5v4.5c0,.4,0,.7-.2.9l-.7.2H21.6l-.8-.2a2,2,0,0,1-.2-.9V122H15.7l-1.6.2a3.3,3.3,0,0,0-1.3.7,2.5,2.5,0,0,0-.9,1.3,4,4,0,0,0-.4,2,4.8,4.8,0,0,0,.3,1.8,3,3,0,0,0,.9,1.3l1.3.7,1.5.2,1.2-.2a2.4,2.4,0,0,0,1.1-.6,1.8,1.8,0,0,0,.7,1.2,2.5,2.5,0,0,0,1.6.4h5Zm-7.4-5.1a1.6,1.6,0,0,1-.5,1.4,1.6,1.6,0,0,1-1.2.4,2.1,2.1,0,0,1-1.2-.3,1.5,1.5,0,0,1-.4-1.2,1.8,1.8,0,0,1,.4-1.4,2.5,2.5,0,0,1,1.3-.3h1.6Z" transform="translate(-11.5 -8.6)"/>
    <path class="cls-2" d="M38.1,123a3.6,3.6,0,0,0-1.5-.8l-1.7-.2a4.1,4.1,0,0,0-1.6.3,3.5,3.5,0,0,0-1.5.7,5.6,5.6,0,0,0-1,1.5,6.7,6.7,0,0,0-.4,2.2,6.2,6.2,0,0,0,.4,2.2,2.7,2.7,0,0,0,1,1.3,4.9,4.9,0,0,0,1.7.6l2.2.2h.9a2.9,2.9,0,0,1-.2.9l-.3.5-.6.2H31v2.5h4.4a4.1,4.1,0,0,0,3-1,3.6,3.6,0,0,0,1-2.8v-4.8a4.8,4.8,0,0,0-.4-2.2A2.8,2.8,0,0,0,38.1,123Zm-1.5,5.5H35a1.8,1.8,0,0,1-1.3-.4c-.3-.2-.5-.7-.5-1.5a2.3,2.3,0,0,1,.5-1.5,1.4,1.4,0,0,1,1.2-.6c1.1,0,1.7.7,1.7,2Z" transform="translate(-11.5 -8.6)"/>
    <path class="cls-2" d="M37.1,120.4v-1.3H35l-.4-.3a.7.7,0,0,1-.2-.6.8.8,0,0,1,.2-.6.9.9,0,0,1,.7-.3h.5l.5.4.8-.9a2.2,2.2,0,0,0-.7-.6l-1.2-.2a1.5,1.5,0,0,0-1,.2l-.8.4a4.3,4.3,0,0,0-.4.7,1.5,1.5,0,0,0-.1.7,1.3,1.3,0,0,0,.1.6l.2.4h-.9v1.3Z" transform="translate(-11.5 -8.6)"/>
    <path class="cls-2" d="M49.8,117.8v9.6a2,2,0,0,1-.2.9l-.8.2H47.7a2.1,2.1,0,0,1-1.2-.3,1.2,1.2,0,0,1-.4-.8v-5l-2.9.5v8.3c-.1.3-.1.6-.2.8l-.5.5-.9.2H40.4v2.5h1.7a3.6,3.6,0,0,0,3.1-1.2,5.3,5.3,0,0,0,.9-3.4v-.3c.3.5,1.4.7,2,.7h2.2a2.2,2.2,0,0,0,1.9-.7,3.1,3.1,0,0,0,.5-1.9V117.3Z" transform="translate(-11.5 -8.6)"/>
    <polygon class="cls-2" points="44.2 109.3 44.2 122.4 47 122.4 47 108.7 44.2 109.3"/>
    <polygon class="cls-2" points="16 126.7 16 124.2 13.5 124.2 13.5 126.1 16 126.7"/>
    <polygon class="cls-2" points="12.8 126.7 12.8 124.2 10.4 124.2 10.4 126.1 12.8 126.7"/>
    <polygon class="cls-2" points="9.1 111.8 9.1 109.3 6.6 109.3 6.6 111.2 9.1 111.8"/>
    <polygon class="cls-2" points="5.9 111.8 5.9 109.3 3.5 109.3 3.5 111.2 5.9 111.8"/>
    <g>
      <path class="cls-2" d="M121.4,122.9v4.5a2,2,0,0,1-.2.9l-.8.2h-1.7a1.8,1.8,0,0,1-1.1-.3,1,1,0,0,1-.4-.8v-.3a6.4,6.4,0,0,0-.3-2,6,6,0,0,0-.8-1.6,3.8,3.8,0,0,0-1.6-1.1,4.8,4.8,0,0,0-2.2-.4,5.2,5.2,0,0,0-2.3.5,9.1,9.1,0,0,0-1.6,1.1l1.6,1.8.9-.7,1.2-.2a1.6,1.6,0,0,1,1,.2l.6.5a2,2,0,0,1,.4.8c0,.3.1.6.1,1s-.1.5-.1.7-.1.4-.3.5l-.4.2h-8.7a3.4,3.4,0,0,0,1.2-1.2,4.1,4.1,0,0,0,.1-3.3,3.1,3.1,0,0,0-.9-1.1,6.1,6.1,0,0,0-1.4-.7l-1.9-.2-1.9.2a6.1,6.1,0,0,0-1.4.7,3.1,3.1,0,0,0-.9,1.1,4.1,4.1,0,0,0,.1,3.3,4.3,4.3,0,0,0,1.1,1.2H92.6a2,2,0,0,1-1.1-.3,1.2,1.2,0,0,1-.4-.8v-5l-2.9.5v3.9a3.5,3.5,0,0,1-.2,1.3c-.1.3-.3.4-.8.4H78.9v-1.9a4.8,4.8,0,0,0-.4-2.2,2.8,2.8,0,0,0-.9-1.4,3.6,3.6,0,0,0-1.5-.8l-1.7-.2-1.7.2-1.4.8a5.6,5.6,0,0,0-1,1.5,6.2,6.2,0,0,0-.3,2.1,4.6,4.6,0,0,0,1,3.4,5,5,0,0,0,3.1,1h2v.6a.9.9,0,0,1-.1.5l-.3.3-.6.2H68.7a2.9,2.9,0,0,1-1-.3,2.7,2.7,0,0,1-.7-.8,2.2,2.2,0,0,1-.2-1.2v-3.8l-3,.6v3.5a3.8,3.8,0,0,0,.4,1.9,3.1,3.1,0,0,0,1,1.5,3.9,3.9,0,0,0,1.7.9,8.7,8.7,0,0,0,2.5.4h5.2a5,5,0,0,0,3.3-.9,2.6,2.6,0,0,0,1-2.3v-1h9.2l1.7-.2a1.3,1.3,0,0,0,1-.9,1.7,1.7,0,0,0,1,.9l1.3.2h7.3a3.3,3.3,0,0,0,1.4-.4,2.8,2.8,0,0,0,1.3.4h10.6a4.8,4.8,0,0,0,1.8-.3,1.8,1.8,0,0,0,1.1-1,2.1,2.1,0,0,0,1.1,1,3.3,3.3,0,0,0,1.5.3h2.7a2.2,2.2,0,0,0,1.9-.7,3.1,3.1,0,0,0,.5-1.9v-6Zm-45.3,5.6H74.5a1.8,1.8,0,0,1-1.3-.4,2.1,2.1,0,0,1-.4-1.5,2.5,2.5,0,0,1,.4-1.6,1.7,1.7,0,0,1,1.2-.5c1.1,0,1.7.7,1.7,2Zm26.9-1.2-1.2.8a5,5,0,0,1-1.2-.8,2.5,2.5,0,0,1-.5-1.6,1.7,1.7,0,0,1,.5-1.3,2.8,2.8,0,0,1,1.2-.4,2.1,2.1,0,0,1,1.1.4,1.4,1.4,0,0,1,.5,1.3A2.5,2.5,0,0,1,103,127.3Z" transform="translate(-11.5 -8.6)"/>
      <polygon class="cls-2" points="112.8 111.8 112.8 109.3 110.3 109.3 110.3 111.2 112.8 111.8"/>
      <polygon class="cls-2" points="109.6 111.8 109.6 109.3 107.2 109.3 107.2 111.2 109.6 111.8"/>
      <polygon class="cls-2" points="93.2 111.8 93.2 109.3 90.7 109.3 90.7 111.2 93.2 111.8"/>
      <polygon class="cls-2" points="90 111.8 90 109.3 87.5 109.3 87.5 111.2 90 111.8"/>
      <polygon class="cls-2" points="65.7 111.8 65.7 109.3 63.2 109.3 63.2 111.2 65.7 111.8"/>
      <polygon class="cls-2" points="62.6 111.8 62.6 109.3 60.1 109.3 60.1 111.2 62.6 111.8"/>
      <polygon class="cls-2" points="80.8 126.7 80.8 124.2 78.4 124.2 78.4 126.1 80.8 126.7"/>
      <polygon class="cls-2" points="77.7 126.7 77.7 124.2 75.2 124.2 75.2 126.1 77.7 126.7"/>
    </g>
    <g>
      <path class="cls-3" d="M181.4,64.6a10.3,10.3,0,0,0-6.7-6.9,9.9,9.9,0,0,1,3-.5,7.8,7.8,0,0,1,2.2.3c.3,0,.4-.2.2-.4L178.7,56a9.8,9.8,0,0,0-5.6-1.7h-.2a10.1,10.1,0,0,1,3.4-1.8.2.2,0,0,0-.1-.4,7.6,7.6,0,0,0-2.1-.3,10.5,10.5,0,0,0-3.6.7,5.1,5.1,0,0,1,1.8-2.6c.1-.1,0-.4-.2-.3a5,5,0,0,0-3.9,2.2,5.1,5.1,0,0,0-1.2-3h-.3a5,5,0,0,0-1.1,3,5.2,5.2,0,0,0-4-2.2c-.2-.1-.3.2-.1.3a6.8,6.8,0,0,1,1.8,2.6,11.5,11.5,0,0,0-3.6-.7,7.8,7.8,0,0,0-2.2.3c-.2,0-.2.3,0,.4a9.6,9.6,0,0,1,3.3,1.8h-.2a9.7,9.7,0,0,0-5.5,1.7,8.3,8.3,0,0,0-1.5,1.1c-.1.2,0,.4.2.4a8.3,8.3,0,0,1,2.2-.3,10.6,10.6,0,0,1,3.1.5,10.1,10.1,0,0,0-6.7,6.9c-.1.2.2.3.4.2a9.3,9.3,0,0,1,6.4-3.1,9.8,9.8,0,0,0-4.6,9,.2.2,0,0,0,.4.1,9.9,9.9,0,0,1,5.9-5.8,10,10,0,0,0-2.6,6.7,9.7,9.7,0,0,0,.6,3.4c.1.2.4.2.4,0a9.8,9.8,0,0,1,5-7.5l.4-.2h.1a27,27,0,0,1,.4,5.9c0,5-.4,14.8-.4,15.2h0l2,1.5h.1l2-1.5a.1.1,0,0,0,.1-.1c-.1-.4-.5-10.2-.5-15.2a23.1,23.1,0,0,1,.5-5.9h.1l.4.2a9.5,9.5,0,0,1,4.9,7.5.3.3,0,0,0,.5,0,12.7,12.7,0,0,0,.5-3.4,9.9,9.9,0,0,0-2.5-6.7,10.2,10.2,0,0,1,5.9,5.8.2.2,0,0,0,.4-.1,10,10,0,0,0-4.6-9,9.5,9.5,0,0,1,6.4,3.1C181.2,64.9,181.4,64.8,181.4,64.6Z" transform="translate(-11.5 -8.6)"/>
      <g>
        <path class="cls-3" d="M173.7,104.5l-.3.3-.4.2h-.5l-.3-.3-.5-.4-.6-.2h-.7c-.2.1-.4.1-.5.3a.8.8,0,0,0-.4.4c-.1.2-.2.3-.2.5a1.7,1.7,0,0,0,0,1,2.2,2.2,0,0,0,2.3,1.2,4.6,4.6,0,0,0,2.7-1.8,1.3,1.3,0,0,0-.2-1.6C174,104.2,173.9,104.4,173.7,104.5Z" transform="translate(-11.5 -8.6)"/>
        <path class="cls-3" d="M164.3,104.8l-.4-.4-.5-.3h-.7l-.7.2-.4.4-.3.3h-.6l-.3-.2-.4-.3c-.1-.1-.2-.3-.4-.4a1.4,1.4,0,0,0-.2,1.6c.2.2,1.4,1.7,2.7,1.8a2.1,2.1,0,0,0,2.3-1.2,1.8,1.8,0,0,0,.1-1Z" transform="translate(-11.5 -8.6)"/>
        <path class="cls-3" d="M197.5,86.5c-11.6-4.5-22.6.6-30.6,6.4-8-5.8-19.1-10.9-30.6-6.4a.3.3,0,0,0,.1.5c10.1-.8,18.1,1.4,27.6,8-2.8,2.3-5.1,4.5-6.7,6l-.9-1.1c-.1-.1-1.4-1.7-2.7-1.8a2.3,2.3,0,0,0-2.3,1.3,1.7,1.7,0,0,0,0,1,.8.8,0,0,0,.2.4l.4.5.5.2h.7l.6-.2a1,1,0,0,0,.5-.4c.1-.1.1-.2.3-.3s.1-.1.2-.1h.3l.4.2a6.9,6.9,0,0,1,1.2,1.4l.5.6.2.3s-1.6-.6-1.9-.4l-3,2.8-.8.7-.7.4-.7.2h-1.1l-.4-.2-.5-.2-.5-.2h-.7l-.9.3a2.4,2.4,0,0,0-.6.8,1.1,1.1,0,0,0-.1.8,1.6,1.6,0,0,0,.3.9l.5.5.6.4.8.3h2.2c2.1-.2,4.1-1.9,5.1-2.9a121.4,121.4,0,0,1,11.9-10.2,150.3,150.3,0,0,1,11.9,10.2c1,1,3,2.7,5,2.9h2.3l.7-.3.7-.4.4-.5a3.6,3.6,0,0,0,.4-.9,1.1,1.1,0,0,0-.2-.8,1.6,1.6,0,0,0-.6-.8,1.9,1.9,0,0,0-.8-.3h-.8l-.4.2-.5.2-.5.2h-1.1l-.6-.2-.7-.4-.8-.7-3.1-2.8c-.2-.2-1.9.4-1.9.4l.3-.3.4-.6a15.4,15.4,0,0,1,1.3-1.4l.3-.2h.6l.3.3c.1.2.3.3.4.4l.7.2h.7l.5-.2.4-.5c.1-.1.1-.3.2-.4a3.1,3.1,0,0,0-.1-1,2.1,2.1,0,0,0-2.3-1.3c-1.3.1-2.6,1.7-2.7,1.8l-.8,1.1c-1.6-1.5-3.9-3.7-6.8-6,9.5-6.6,17.6-8.8,27.7-8A.3.3,0,0,0,197.5,86.5Z" transform="translate(-11.5 -8.6)"/>
      </g>
      <g>
        <path class="cls-4" d="M118.1,48.1a71.3,71.3,0,0,0-6.9,2.9c-.9-2.5-1.8-5-2.5-7.6a69.1,69.1,0,0,1,7.7-2.5A54,54,0,0,0,118.1,48.1Z" transform="translate(-11.5 -8.6)"/>
        <path class="cls-5" d="M215,65.4c-.9,1.4-1.9,2.7-2.9,4.1l-.5.6c-1.4-1.2-2.8-2.5-4.2-3.6a4.3,4.3,0,0,1,.4-.7c.8-1.3,1.5-2.6,2.2-4Z" transform="translate(-11.5 -8.6)"/>
        <path class="cls-6" d="M206.9,59.9l-1.8,3.8-.4.7c-1.2-.9-2.5-1.7-3.8-2.5l.3-.7,1.2-3.7A49.2,49.2,0,0,1,206.9,59.9Z" transform="translate(-11.5 -8.6)"/>
        <path class="cls-4" d="M220.5,55.6c-1,2.1-2,4.2-3.2,6.2a64.2,64.2,0,0,0-5.6-3.4c.9-2,1.7-3.9,2.4-5.9C216.3,53.4,218.4,54.5,220.5,55.6Z" transform="translate(-11.5 -8.6)"/>
        <path class="cls-7" d="M210.1,50.9a42.3,42.3,0,0,1-1.9,5.7,43.1,43.1,0,0,0-4.9-2.2c.4-1.8.8-3.6,1.1-5.4C206.3,49.6,208.3,50.2,210.1,50.9Z" transform="translate(-11.5 -8.6)"/>
        <path class="cls-5" d="M200.9,48.2a40.1,40.1,0,0,1-.7,5l-4.3-1.3c0-1,.1-1.9.1-2.9s-.1-1.2-.1-1.8Z" transform="translate(-11.5 -8.6)"/>
        <path class="cls-5" d="M224.9,43.4a69.1,69.1,0,0,1-2.5,7.7,52.8,52.8,0,0,0-6.9-2.9c.7-2.4,1.2-4.8,1.7-7.3A69.1,69.1,0,0,1,224.9,43.4Z" transform="translate(-11.5 -8.6)"/>
        <path class="cls-6" d="M212.4,39.8c-.3,2.4-.7,4.7-1.2,7a62.3,62.3,0,0,0-6.2-1.5c.2-2.1.4-4.3.4-6.4C207.8,39.1,210.1,39.4,212.4,39.8Z" transform="translate(-11.5 -8.6)"/>
        <path class="cls-4" d="M201.3,40.9c0,1.3,0,2.5-.1,3.7l-5.4-.5a51.4,51.4,0,0,0-.6-5.5h6A17.7,17.7,0,0,1,201.3,40.9Z" transform="translate(-11.5 -8.6)"/>
        <path class="cls-7" d="M192.5,44h-4.6c-.4-1.5-.8-3-1.3-4.4l5-.7Z" transform="translate(-11.5 -8.6)"/>
        <path class="cls-4" d="M213,30.8c0,1.3-.1,2.7-.1,4.1a47.4,47.4,0,0,0-7.5-.6,45.2,45.2,0,0,0-.6-7.4h8.1C212.9,28.2,213,29.5,213,30.8Z" transform="translate(-11.5 -8.6)"/>
        <path class="cls-7" d="M201,34.3c-2.2,0-4.3.2-6.4.4-.5-2-1-4.1-1.6-6.1,2.3-.5,4.7-.9,7-1.2A49.8,49.8,0,0,1,201,34.3Z" transform="translate(-11.5 -8.6)"/>
        <path class="cls-5" d="M190.7,35.3l-5.3,1.1c-.7-1.6-1.4-3.2-2.2-4.8a42.3,42.3,0,0,1,5.7-1.9A52.2,52.2,0,0,1,190.7,35.3Z" transform="translate(-11.5 -8.6)"/>
        <path class="cls-6" d="M182.3,37.3l-4.5,1.5-2.6-3.6,4.7-2.3Z" transform="translate(-11.5 -8.6)"/>
        <path class="cls-6" d="M198.9,22.5a59.5,59.5,0,0,0-7.3,1.7,57.9,57.9,0,0,0-2.9-6.8,64.6,64.6,0,0,1,7.8-2.5C197.4,17.4,198.2,19.9,198.9,22.5Z" transform="translate(-11.5 -8.6)"/>
        <path class="cls-4" d="M187.3,25.6a60.7,60.7,0,0,0-5.9,2.4c-1.1-1.8-2.2-3.6-3.4-5.4,2-1.2,4.1-2.3,6.2-3.3C185.3,21.4,186.3,23.5,187.3,25.6Z" transform="translate(-11.5 -8.6)"/>
        <path class="cls-7" d="M177.9,29.7l-4.8,2.8a44.8,44.8,0,0,0-3.6-4,56,56,0,0,1,4.9-3.6C175.7,26.5,176.8,28.1,177.9,29.7Z" transform="translate(-11.5 -8.6)"/>
        <path class="cls-5" d="M170.4,34.3l-3.7,2.8-3.6-2.7,3.7-3.6C168,32,169.3,33.1,170.4,34.3Z" transform="translate(-11.5 -8.6)"/>
        <path class="cls-5" d="M181.7,15.2,175.4,19c-1.5-1.9-3.1-3.8-4.8-5.6A58.4,58.4,0,0,1,177,8.7,71.1,71.1,0,0,1,181.7,15.2Z" transform="translate(-11.5 -8.6)"/>
        <path class="cls-6" d="M171.8,21.7c-1.7,1.3-3.4,2.7-5,4.2a49.3,49.3,0,0,0-4.9-4.2,60.2,60.2,0,0,1,5-5.1C168.6,18.2,170.2,19.9,171.8,21.7Z" transform="translate(-11.5 -8.6)"/>
        <path class="cls-4" d="M164.1,28.6c-1.3,1.3-2.5,2.6-3.7,4-1.5-.9-3.1-1.9-4.7-2.7,1.1-1.7,2.3-3.4,3.5-5Z" transform="translate(-11.5 -8.6)"/>
        <path class="cls-7" d="M158.4,35.1c-.9,1.3-1.8,2.5-2.6,3.8l-4.4-1.5a49.2,49.2,0,0,1,2.4-4.5Z" transform="translate(-11.5 -8.6)"/>
        <path class="cls-4" d="M163.1,13.3c-1.7,1.8-3.3,3.7-4.9,5.7a66.5,66.5,0,0,0-6.3-3.9,59.6,59.6,0,0,1,4.7-6.5A59.6,59.6,0,0,1,163.1,13.3Z" transform="translate(-11.5 -8.6)"/>
        <path class="cls-6" d="M147.1,39.6c-.5,1.4-1,2.9-1.4,4.4h-4.6a40.1,40.1,0,0,1,.9-5Z" transform="translate(-11.5 -8.6)"/>
        <path class="cls-5" d="M150.4,31.5c-.8,1.6-1.5,3.3-2.2,5l-5.3-1.1a55.8,55.8,0,0,1,1.8-5.8Z" transform="translate(-11.5 -8.6)"/>
        <path class="cls-7" d="M155.6,22.6a62.6,62.6,0,0,0-3.4,5.5,53.6,53.6,0,0,0-6-2.4c1-2.2,2-4.3,3.2-6.4C151.5,20.3,153.6,21.4,155.6,22.6Z" transform="translate(-11.5 -8.6)"/>
        <path class="cls-6" d="M144.9,17.4a52.8,52.8,0,0,0-2.9,6.9,62.5,62.5,0,0,0-7.2-1.7,70.8,70.8,0,0,1,2.5-7.8A68.1,68.1,0,0,1,144.9,17.4Z" transform="translate(-11.5 -8.6)"/>
        <path class="cls-4" d="M140.6,28.6a62.3,62.3,0,0,0-1.5,6.2l-6.4-.5a52.1,52.1,0,0,1,1-6.9A55.4,55.4,0,0,1,140.6,28.6Z" transform="translate(-11.5 -8.6)"/>
        <path class="cls-7" d="M138.5,38.6a49.5,49.5,0,0,0-.6,5.4c-1.8.2-3.6.3-5.4.6-.1-1.2-.1-2.3-.1-3.5V38.6h6.1Z" transform="translate(-11.5 -8.6)"/>
        <path class="cls-5" d="M137.8,51.8l-4.4,1.4c-.3-1.6-.5-3.3-.7-5,1.7-.3,3.4-.7,5.1-.9v4.5Z" transform="translate(-11.5 -8.6)"/>
        <path class="cls-5" d="M128.7,26.9c-.3,2.4-.5,4.9-.6,7.4-2.5.1-4.9.3-7.3.6-.1-1.4-.2-2.8-.2-4.3s.1-2.5.1-3.7h8Z" transform="translate(-11.5 -8.6)"/>
        <path class="cls-6" d="M128.6,45.2l-6.2,1.5q-.7-3.3-1.2-6.9,3.5-.6,6.9-.9C128.2,41,128.3,43.1,128.6,45.2Z" transform="translate(-11.5 -8.6)"/>
        <path class="cls-4" d="M130.3,54.4c-1.7.6-3.3,1.4-4.9,2.1-.7-1.8-1.3-3.7-1.9-5.6,1.9-.7,3.7-1.3,5.6-1.8C129.5,50.9,129.8,52.6,130.3,54.4Z" transform="translate(-11.5 -8.6)"/>
        <path class="cls-7" d="M121.9,58.4a61.6,61.6,0,0,0-5.5,3.3c-1.1-2-2.2-4-3.2-6.1a46,46,0,0,1,6.3-3.1A60.7,60.7,0,0,0,121.9,58.4Z" transform="translate(-11.5 -8.6)"/>
        <path class="cls-5" d="M126.3,66.5c-1.4,1.2-2.8,2.3-4.1,3.6l-.8-1.1-2.6-3.6a59.2,59.2,0,0,1,4.8-3.5,39.7,39.7,0,0,0,2,3.5A4.1,4.1,0,0,0,126.3,66.5Z" transform="translate(-11.5 -8.6)"/>
        <path class="cls-7" d="M132.6,61.9,129,64.4l-.6-1.1L126.8,60l4.4-2.4c.3,1.1.7,2.1,1,3.2A4.9,4.9,0,0,1,132.6,61.9Z" transform="translate(-11.5 -8.6)"/>
      </g>
    </g>
    <g>
      <path class="cls-2" d="M123.7,103.4a4.1,4.1,0,0,0-.8-1.3,3.3,3.3,0,0,0-1.3-.7,3.6,3.6,0,0,0-1.5-.2,3.4,3.4,0,0,0-1.5.2,2.4,2.4,0,0,0-1.2.7,2.5,2.5,0,0,0-.8,1.2,8,8,0,0,0-.4,1.8v.3c0,.1.1.2.1.3s-.1.6-.1.8l-.3.5a.5.5,0,0,1-.4.3H114a2,2,0,0,1-1.1-.3.8.8,0,0,1-.4-.8v-1.5a4.5,4.5,0,0,0-.3-1.8,3.2,3.2,0,0,0-1-1,3.8,3.8,0,0,0-1.4-.5h-1.7l3.1-3.6a.4.4,0,0,0-.1-.3l-1.2-1h-.3l-4,4.7-.2.2a.4.4,0,0,0-.1.3v1.3a.2.2,0,0,0,.2.2h3c1.3,0,1.9.5,1.9,1.6v1.7c-.1.2-.1.4-.3.5a.5.5,0,0,1-.4.2h-5.8a1.8,1.8,0,0,1-1.1-.3,1,1,0,0,1-.4-.9v-4.5a.2.2,0,0,0-.2-.2h-1.8c-.1.1-.1.1-.1.2v3.9a1.9,1.9,0,0,1-.1.8,1.3,1.3,0,0,1-.1.6l-.2.3H97.8a2,2,0,0,1-1.1-.3,1,1,0,0,1-.4-.8v-4.6a.2.2,0,0,0-.2-.2H94.4a.2.2,0,0,0-.2.2v4.8c-.1.2-.1.4-.2.5s-.1.3-.2.3H85.5l-.7-.2a1.5,1.5,0,0,1-.2-.8v-3.5c0-.2,0-.2-.2-.2H82.7c-.1,0-.2,0-.2.2v4a3,3,0,0,0,.5,1.8,2.2,2.2,0,0,0,1.7.6h9.2a2.9,2.9,0,0,0,1.4-.3,1,1,0,0,0,.7-.7c.3.4.5.7.9.8l1.3.2h1.7l1.4-.2a1.6,1.6,0,0,0,.8-.8,1.4,1.4,0,0,0,.9.8l1.2.2h5.5a3.3,3.3,0,0,0,1.5-.3,1.4,1.4,0,0,0,.9-.8,2,2,0,0,0,.9.9l1.3.2h1.9l.5-.3c.2-.1.3-.3.5-.5a2,2,0,0,0,1.2.8,4.7,4.7,0,0,0,1.7.3l1.6-.2,1.2-.7a5.7,5.7,0,0,0,.8-1.3,5,5,0,0,0,.3-1.9A5.4,5.4,0,0,0,123.7,103.4Zm-2.3,3.6a1.7,1.7,0,0,1-1.3.5,1.4,1.4,0,0,1-1.3-.5,2.5,2.5,0,0,1-.5-1.7,2.9,2.9,0,0,1,.5-1.7,1.5,1.5,0,0,1,1.3-.6c1.2,0,1.8.8,1.8,2.3A2.6,2.6,0,0,1,121.4,107Z" transform="translate(-11.5 -8.6)"/>
      <polygon class="cls-2" points="92 91 92 89.1 90.1 89.1 90.1 90.6 92 91"/>
      <polygon class="cls-2" points="89.6 91 89.6 89.1 87.6 89.1 87.6 90.6 89.6 91"/>
      <polygon class="cls-2" points="78.8 104.3 78.8 102.3 76.9 102.3 76.9 103.8 78.8 104.3"/>
    </g>
  </g>
</svg>
