<svg xmlns="http://www.w3.org/2000/svg" width="15.541" height="15.541" viewBox="0 0 15.541 15.541"><defs><style>.a{fill:#adadad;}</style></defs><g transform="translate(0 1.554)"><path class="a" d="M13.728,16.987H1.813A1.815,1.815,0,0,1,0,15.174V4.813A1.815,1.815,0,0,1,1.813,3H13.728a1.815,1.815,0,0,1,1.813,1.813V15.174A1.815,1.815,0,0,1,13.728,16.987ZM1.813,3.518a1.3,1.3,0,0,0-1.3,1.3V15.174a1.3,1.3,0,0,0,1.3,1.3H13.728a1.3,1.3,0,0,0,1.3-1.3V4.813a1.3,1.3,0,0,0-1.3-1.3Z" transform="translate(0 -3)"/></g><g transform="translate(0 4.662)"><path class="a" d="M15.282,9.518H.259A.259.259,0,0,1,.259,9H15.282a.259.259,0,0,1,0,.518Z" transform="translate(0 -9)"/></g><g transform="translate(4.144)"><path class="a" d="M8.259,3.108A.259.259,0,0,1,8,2.849V.259a.259.259,0,0,1,.518,0v2.59A.259.259,0,0,1,8.259,3.108Z" transform="translate(-8)"/></g><g transform="translate(10.879)"><path class="a" d="M21.259,3.108A.259.259,0,0,1,21,2.849V.259a.259.259,0,1,1,.518,0v2.59A.259.259,0,0,1,21.259,3.108Z" transform="translate(-21)"/></g><g transform="translate(4.144 7.252)"><path class="a" d="M9.554,19.7a.243.243,0,0,1-.044,0A1.556,1.556,0,0,1,8,18.141a.259.259,0,0,1,.518,0,1.037,1.037,0,0,0,1.036,1.036l.035,0a1.034,1.034,0,0,0,1-1.023A1.013,1.013,0,0,0,9.554,17.15H8.907a.259.259,0,1,1,0-.518h.648a1.061,1.061,0,0,0,1.036-1.057,1.036,1.036,0,1,0-2.072-.022.259.259,0,0,1-.518,0,1.554,1.554,0,0,1,3.108,0,1.6,1.6,0,0,1-.691,1.33,1.51,1.51,0,0,1,.691,1.261v.027A1.553,1.553,0,0,1,9.554,19.7Z" transform="translate(-8 -14)"/></g><g transform="translate(8.807 7.252)"><path class="a" d="M18.3,19.439a.259.259,0,0,1-.259-.259v-4.3l-.594.594a.259.259,0,1,1-.366-.366l1.036-1.036a.259.259,0,0,1,.442.183V19.18A.259.259,0,0,1,18.3,19.439Z" transform="translate(-17.001 -13.999)"/></g><g transform="translate(8.807 12.433)"><path class="a" d="M19.331,24.518H17.259a.259.259,0,1,1,0-.518h2.072a.259.259,0,0,1,0,.518Z" transform="translate(-17 -24)"/></g></svg>