<svg xmlns="http://www.w3.org/2000/svg" width="22" height="22" viewBox="0 0 22 22"><defs><style>.a{fill:#fff;}</style></defs><g transform="translate(-845 -2861)"><g transform="translate(845 2861)"><path class="a" d="M865.167,2883H846.833a1.835,1.835,0,0,1-1.833-1.833v-18.333a1.835,1.835,0,0,1,1.833-1.833h18.333a1.835,1.835,0,0,1,1.833,1.833v18.333A1.835,1.835,0,0,1,865.167,2883Zm-18.333-21.267a1.1,1.1,0,0,0-1.1,1.1v18.333a1.1,1.1,0,0,0,1.1,1.1h18.333a1.1,1.1,0,0,0,1.1-1.1v-18.333a1.1,1.1,0,0,0-1.1-1.1Z" transform="translate(-845 -2861)"/><g transform="translate(0 4.4)"><path class="a" d="M866.633,2867.733H845.367a.367.367,0,0,1,0-.733h21.267a.367.367,0,0,1,0,.733Z" transform="translate(-845 -2867)"/></g><g transform="translate(1.754 2.12)"><circle class="a" cx="0.462" cy="0.462" r="0.462"/></g><g transform="translate(3.603 2.12)"><circle class="a" cx="0.462" cy="0.462" r="0.462"/></g><g transform="translate(5.452 2.12)"><circle class="a" cx="0.462" cy="0.462" r="0.462"/></g><g transform="translate(4.4 8.067)"><path class="a" d="M863.833,2872.733H851.367a.367.367,0,0,1,0-.733h12.467a.367.367,0,0,1,0,.733Z" transform="translate(-851 -2872)"/></g><g transform="translate(4.4 11.733)"><path class="a" d="M863.833,2877.733H851.367a.367.367,0,0,1,0-.733h12.467a.367.367,0,0,1,0,.733Z" transform="translate(-851 -2877)"/></g><g transform="translate(4.4 15.4)"><path class="a" d="M863.833,2882.733H851.367a.367.367,0,0,1,0-.733h12.467a.367.367,0,0,1,0,.733Z" transform="translate(-851 -2882)"/></g></g></g></svg>